<?xml version="1.0" encoding="UTF-8"?>
<svg version="1.1" xmlns="http://www.w3.org/2000/svg" width="192" height="192">
<path d="M0 0 C0.96564377 -0.0071553 1.93128754 -0.01431061 2.92619324 -0.02168274 C4.50572784 -0.02571609 4.50572784 -0.02571609 6.11717224 -0.02983093 C7.78866585 -0.03968773 7.78866585 -0.03968773 9.493927 -0.04974365 C13.18531869 -0.06946862 16.87666966 -0.08113895 20.56809998 -0.09111023 C21.83047926 -0.09518576 23.09285854 -0.09926128 24.39349174 -0.10346031 C30.38906889 -0.12216981 36.38462146 -0.13673432 42.38022 -0.14507228 C49.27788701 -0.15482536 56.17523147 -0.18109689 63.07278496 -0.22157317 C69.06460233 -0.25551468 75.05626468 -0.2672291 81.04818535 -0.27127647 C83.58737814 -0.2761355 86.12656767 -0.28772983 88.6656971 -0.30631447 C92.22920698 -0.33077086 95.79188465 -0.3297282 99.35545349 -0.32279968 C100.39430695 -0.33560974 101.4331604 -0.3484198 102.50349426 -0.36161804 C115.27025355 -0.27165294 126.80355042 5.10534439 136.31419373 13.52217102 C143.39381575 20.93342504 149.2838037 32.65788927 149.33636475 42.95797729 C149.3470977 44.40644295 149.3470977 44.40644295 149.35804749 45.88417053 C149.36073639 46.9371936 149.36342529 47.99021667 149.36619568 49.07514954 C149.37276688 50.18947861 149.37933807 51.30380768 149.3861084 52.4519043 C149.40583337 56.14329598 149.4175037 59.83464696 149.42747498 63.52607727 C149.4315505 64.78845655 149.43562603 66.05083584 149.43982506 67.35146904 C149.45853456 73.34704618 149.47309907 79.34259875 149.48143703 85.33819729 C149.4911901 92.2358643 149.51746164 99.13320876 149.55793792 106.03076226 C149.59187942 112.02257963 149.60359384 118.01424198 149.60764122 124.00616264 C149.61250025 126.54535544 149.62409458 129.08454496 149.64267921 131.62367439 C149.6671356 135.18718427 149.66609295 138.74986194 149.65916443 142.31343079 C149.67837952 143.87171097 149.67837952 143.87171097 149.69798279 145.46147156 C149.60801768 158.22823084 144.23102035 169.76152772 135.81419373 179.27217102 C128.40293971 186.35179305 116.67847548 192.24178099 106.37838745 192.29434204 C104.9299218 192.305075 104.9299218 192.305075 103.45219421 192.31602478 C102.39917114 192.31871368 101.34614807 192.32140259 100.26121521 192.32417297 C99.14688614 192.33074417 98.03255707 192.33731537 96.88446045 192.34408569 C93.19306876 192.36381066 89.50171779 192.37548099 85.81028748 192.38545227 C84.54790819 192.3895278 83.28552891 192.39360332 81.98489571 192.39780235 C75.98931856 192.41651185 69.99376599 192.43107636 63.99816746 192.43941432 C57.10050044 192.4491674 50.20315598 192.47543893 43.30560249 192.51591522 C37.31378512 192.54985672 31.32212277 192.56157114 25.3302021 192.56561852 C22.79100931 192.57047755 20.25181978 192.58207187 17.71269035 192.60065651 C14.14918047 192.6251129 10.5865028 192.62407024 7.02293396 192.61714172 C5.46465378 192.63635681 5.46465378 192.63635681 3.87489319 192.65596008 C-8.89186609 192.56599498 -20.42516297 187.18899765 -29.93580627 178.77217102 C-37.0154283 171.360917 -42.90541625 159.63645277 -42.95797729 149.33636475 C-42.9651326 148.37072098 -42.9722879 147.40507721 -42.97966003 146.41017151 C-42.98234894 145.35714844 -42.98503784 144.30412537 -42.98780823 143.2191925 C-42.99437943 142.10486343 -43.00095062 140.99053436 -43.00772095 139.84243774 C-43.02744592 136.15104606 -43.03911625 132.45969509 -43.04908752 128.76826477 C-43.05316305 127.50588549 -43.05723858 126.2435062 -43.06143761 124.942873 C-43.08014711 118.94729586 -43.09471162 112.95174329 -43.10304958 106.95614475 C-43.11280265 100.05847774 -43.13907419 93.16113328 -43.17955047 86.26357979 C-43.21349197 80.27176241 -43.22520639 74.28010007 -43.22925377 68.2881794 C-43.2341128 65.7489866 -43.24570713 63.20979708 -43.26429176 60.67066765 C-43.28874815 57.10715777 -43.2877055 53.5444801 -43.28077698 49.98091125 C-43.29358704 48.9420578 -43.30639709 47.90320435 -43.31959534 46.83287048 C-43.22963023 34.0661112 -37.8526329 22.53281432 -29.43580627 13.02217102 C-22.02455226 5.94254899 -10.30008802 0.05256105 0 0 Z " fill="#090908" transform="translate(42.81080627441406,-0.1471710205078125)"/>
<path d="M0 0 C7.59 0 15.18 0 23 0 C26.05715163 5.35001535 27.8022574 9.04546488 29 14.8125 C29.15952148 15.53300537 29.31904297 16.25351074 29.48339844 16.99584961 C29.82129564 18.52676105 30.15419474 20.05878308 30.48242188 21.59179688 C31.02166732 24.10081438 31.57887542 26.60530483 32.140625 29.109375 C33.10364894 33.40411066 34.05479089 37.70130962 35 42 C39.24057529 35.60840825 42.40385471 29.00752211 45.5 22 C53.01995565 4.98004435 53.01995565 4.98004435 58 0 C60.74485593 -0.14507695 63.38480543 -0.18652423 66.125 -0.125 C66.87910156 -0.11597656 67.63320312 -0.10695312 68.41015625 -0.09765625 C70.27357254 -0.0740687 72.13682593 -0.03819719 74 0 C73.38125 1.093125 72.7625 2.18625 72.125 3.3125 C66.83098596 14.16610238 67.71878494 26.30984229 67.79418945 38.09155273 C67.81264798 41.08651085 67.81469732 44.08116234 67.81445312 47.07617188 C67.81936201 48.97916936 67.82518756 50.88216474 67.83203125 52.78515625 C67.83314407 53.68089859 67.8342569 54.57664093 67.83540344 55.49952698 C67.84178329 56.32476364 67.84816315 57.15000031 67.85473633 58.00024414 C67.85854813 58.72651505 67.86235992 59.45278595 67.86628723 60.20106506 C67.89316995 62.10274361 67.89316995 62.10274361 69 64 C61.41 64 53.82 64 46 64 C47.65 61.03 49.3 58.06 51 55 C51.89016895 52.00400487 51.89016895 52.00400487 52.109375 49.1953125 C52.22410156 48.20015625 52.33882813 47.205 52.45703125 46.1796875 C52.60205078 44.66761719 52.60205078 44.66761719 52.75 43.125 C52.97177401 41.08569877 53.19563621 39.04662324 53.421875 37.0078125 C53.51049805 36.11723145 53.59912109 35.22665039 53.69042969 34.30908203 C54 32 54 32 55 29 C55.06970052 26.60509014 55.08448003 24.20832309 55.0625 21.8125 C55.05347656 20.54019531 55.04445313 19.26789063 55.03515625 17.95703125 C55.02355469 16.98121094 55.01195312 16.00539063 55 15 C51.00132793 22.08449593 47.16579734 28.99001969 44.625 36.75 C42.57054585 42.90630246 39.84393642 48.51450075 36.8125 54.25 C36.37180176 55.08499023 35.93110352 55.91998047 35.47705078 56.78027344 C32.28238007 62.71761993 32.28238007 62.71761993 30 65 C27.375 64.625 27.375 64.625 25 64 C24.83395264 63.30551758 24.66790527 62.61103516 24.49682617 61.89550781 C23.72767856 58.68018801 22.95759317 55.46509346 22.1875 52.25 C21.92646484 51.15816406 21.66542969 50.06632812 21.39648438 48.94140625 C21.13544922 47.85214844 20.87441406 46.76289062 20.60546875 45.640625 C20.3427417 44.54266602 20.08001465 43.44470703 19.80932617 42.31347656 C18.77688353 38.08653493 17.67784662 33.87766122 16.5625 29.671875 C15.72694692 25.70299789 15.79794647 22.04107064 16 18 C15.34 18 14.68 18 14 18 C13.90203125 18.825 13.8040625 19.65 13.703125 20.5 C10.93142871 41.90896442 5.6610374 68.40543374 -11.98046875 82.703125 C-17.29079918 86.11324048 -21.19409909 87.43107376 -27.5625 87.4375 C-28.84253906 87.45683594 -30.12257813 87.47617188 -31.44140625 87.49609375 C-35.51052435 86.92882921 -37.12730273 85.87269727 -40 83 C-41.35439668 80.29120665 -41.06501451 77.99066732 -41 75 C-39.02 74.01 -39.02 74.01 -37 73 C-36.01 73.66 -35.02 74.32 -34 75 C-27.01929517 76.08364732 -20.96693953 74.69230832 -15 71 C-10.36769782 67.58450542 -7.5391826 64.22439423 -4.8125 59.125 C-4.48314453 58.53847656 -4.15378906 57.95195313 -3.81445312 57.34765625 C0.13366619 50.20493542 2.70450558 43.05064417 4.5625 35.125 C4.77938477 34.21258545 4.99626953 33.3001709 5.21972656 32.36010742 C6.90534786 25.00182051 7.93752523 17.68477562 8.640625 10.17578125 C9 7 9 7 10 5 C8.01432292 5.06510417 6.02864583 5.13020833 4.04296875 5.1953125 C2 5 2 5 -1 3 C-0.67 2.01 -0.34 1.02 0 0 Z " fill="#E5E5E5" transform="translate(83,58)"/>
<path d="M0 0 C-0.41117173 8.4077529 -1.61250473 16.35766783 -3.3671875 24.5859375 C-4.09723975 28.52461447 -4.24394215 32.01561153 -4 36 C-3.236875 35.01 -2.47375 34.02 -1.6875 33 C1.25644677 30.04206774 3.35463886 29.52233004 7.5 29.4375 C11.96322145 29.70432302 15.30664523 30.32231779 19 33 C23.34185856 38.82723122 22.57234885 45.03900042 22 52 C20.10158824 61.51957199 14.78057952 68.38220395 7 74 C-1.20014121 79.17823732 -11.59479987 79.11318158 -21 78 C-24.04296875 76.9765625 -24.04296875 76.9765625 -26 76 C-24.73446076 60.15242652 -21.79424579 44.79482508 -18.4050293 29.27563477 C-17.38513595 24.47248533 -16.74667347 19.99949009 -16.8125 15.0625 C-16.81894531 13.98097656 -16.82539062 12.89945313 -16.83203125 11.78515625 C-16.88467042 8.91508157 -16.88467042 8.91508157 -18 6 C-16.13308826 4.98498002 -14.25604656 3.98857921 -12.375 3 C-11.33085938 2.443125 -10.28671875 1.88625 -9.2109375 1.3125 C-5.85853405 -0.0578255 -3.58045064 -0.2580505 0 0 Z " fill="#E3E3E3" transform="translate(62,45)"/>
<path d="M0 0 C3.01909615 3.01909615 2.42692467 6.45005673 2.4375 10.5 C2.43126591 21.02003296 -0.59463595 27.69908187 -7.47265625 35.625 C-10.71994186 38.54838756 -13.43175894 39.25200709 -17.75 39.125 C-18.54921875 39.10695312 -19.3484375 39.08890625 -20.171875 39.0703125 C-20.77515625 39.04710937 -21.3784375 39.02390625 -22 39 C-22.53700738 26.4101603 -22.44591803 14.2374764 -14 4 C-9.91701435 -0.43295585 -5.77977264 -0.97654312 0 0 Z " fill="#0F0F0E" transform="translate(70,81)"/>
<path d="M0 0 C0.33 0 0.66 0 1 0 C1.05397335 2.4377963 1.09365616 4.87439685 1.125 7.3125 C1.15013672 8.34793945 1.15013672 8.34793945 1.17578125 9.40429688 C1.21217794 13.17135396 1.14378864 14.78431704 -1 18 C-1.33 16.35 -1.66 14.7 -2 13 C-2.61875 13.825 -3.2375 14.65 -3.875 15.5 C-4.926875 16.7375 -4.926875 16.7375 -6 18 C-6.66 18 -7.32 18 -8 18 C-8.33 18.66 -8.66 19.32 -9 20 C-8.45914863 15.04970761 -6.91707516 11.52139502 -4.5 7.1875 C-3.8709375 6.04667969 -3.241875 4.90585938 -2.59375 3.73046875 C-1 1 -1 1 0 0 Z " fill="#383838" transform="translate(138,72)"/>
<path d="M0 0 C2.23177054 3.34765581 2.24633323 4.47061285 2.1875 8.375 C2.18105469 9.31085938 2.17460938 10.24671875 2.16796875 11.2109375 C2.00628217 13.89568683 1.5953259 16.38056603 1 19 C2.98 19 4.96 19 7 19 C7.33 19.66 7.66 20.32 8 21 C5.03 21 2.06 21 -1 21 C-1.0270203 18.24993392 -1.04684883 15.50013454 -1.0625 12.75 C-1.07087891 11.97269531 -1.07925781 11.19539063 -1.08789062 10.39453125 C-1.09111328 9.64042969 -1.09433594 8.88632813 -1.09765625 8.109375 C-1.10289307 7.41811523 -1.10812988 6.72685547 -1.11352539 6.01464844 C-0.99437971 3.90026102 -0.57618237 2.03358485 0 0 Z " fill="#3A3A3A" transform="translate(49,99)"/>
<path d="M0 0 C0.66 0.33 1.32 0.66 2 1 C0.92492371 2.29854721 -0.16043736 3.58858361 -1.25 4.875 C-1.85328125 5.59429688 -2.4565625 6.31359375 -3.078125 7.0546875 C-4.97087634 8.97052118 -6.53657727 9.96449045 -9 11 C-7.59155282 7.78475695 -5.89655214 5.67816132 -3.375 3.25 C-2.74335938 2.63640625 -2.11171875 2.0228125 -1.4609375 1.390625 C-0.73777344 0.70226562 -0.73777344 0.70226562 0 0 Z " fill="#777776" transform="translate(18,9)"/>
<path d="M0 0 C0.99 0 1.98 0 3 0 C2.67 1.65 2.34 3.3 2 5 C1.01 5.33 0.02 5.66 -1 6 C-1.33 6.66 -1.66 7.32 -2 8 C-1.125 2.25 -1.125 2.25 0 0 Z " fill="#424242" transform="translate(131,84)"/>
</svg>
